<?xml version="1.0" encoding="UTF-8"?>
<svg version="1.1" xmlns="http://www.w3.org/2000/svg" width="64" height="64">
<path d="M0 0 C18.48 0 36.96 0 56 0 C56 15.84 56 31.68 56 48 C37.52 48 19.04 48 0 48 C0 32.16 0 16.32 0 0 Z M2 3 C2 5.31 2 7.62 2 10 C15.86 10 29.72 10 44 10 C44 10.66 44 11.32 44 12 C30.14 12 16.28 12 2 12 C1.979375 17.424375 1.95875 22.84875 1.9375 28.4375 C1.928396 30.15122803 1.91929199 31.86495605 1.90991211 33.63061523 C1.90699284 34.98160727 1.90444431 36.33260019 1.90234375 37.68359375 C1.89722778 38.39100708 1.89211182 39.09842041 1.88684082 39.82727051 C1.88652968 41.55192617 1.93774239 43.27646838 2 45 C3.62754644 46.62754644 5.44138323 46.12737077 7.6875 46.12939453 C8.68523438 46.13254669 9.68296875 46.13569885 10.7109375 46.13894653 C11.79632813 46.1369223 12.88171875 46.13489807 14 46.1328125 C15.65902344 46.13424759 15.65902344 46.13424759 17.3515625 46.13571167 C19.69531308 46.13639367 22.03906553 46.13453804 24.3828125 46.13037109 C27.98441788 46.12502314 31.58589853 46.13031547 35.1875 46.13671875 C37.45833361 46.13605797 39.72916714 46.13477682 42 46.1328125 C43.08539063 46.13483673 44.17078125 46.13686096 45.2890625 46.13894653 C46.28679688 46.13579437 47.28453125 46.13264221 48.3125 46.12939453 C49.63701172 46.12820114 49.63701172 46.12820114 50.98828125 46.12698364 C52.99767892 46.22270674 52.99767892 46.22270674 54 45 C54.1011692 41.90918535 54.13968558 38.84117445 54.1328125 35.75 C54.13376923 34.82155273 54.13472595 33.89310547 54.13571167 32.93652344 C54.13639355 30.96940035 54.13453872 29.00227504 54.13037109 27.03515625 C54.12502295 24.01296974 54.13031582 20.99093185 54.13671875 17.96875 C54.13605797 16.06249967 54.13477681 14.15624943 54.1328125 12.25 C54.13483673 11.33959961 54.13686096 10.42919922 54.13894653 9.49121094 C54.53891332 5.42336322 54.53891332 5.42336322 53 2 C51.44000952 1.90153033 49.87559456 1.87201382 48.3125 1.87060547 C47.31476562 1.86745331 46.31703125 1.86430115 45.2890625 1.86105347 C43.66097656 1.86408981 43.66097656 1.86408981 42 1.8671875 C40.89398438 1.86623077 39.78796875 1.86527405 38.6484375 1.86428833 C36.30468692 1.86360633 33.96093447 1.86546196 31.6171875 1.86962891 C28.01558212 1.87497686 24.41410147 1.86968453 20.8125 1.86328125 C18.54166639 1.86394203 16.27083286 1.86522318 14 1.8671875 C12.37191406 1.86415115 12.37191406 1.86415115 10.7109375 1.86105347 C9.71320312 1.86420563 8.71546875 1.86735779 7.6875 1.87060547 C6.36298828 1.87179886 6.36298828 1.87179886 5.01171875 1.87301636 C3.00232108 1.77729326 3.00232108 1.77729326 2 3 Z " fill="#000000" transform="translate(4,8)"/>
<path d="M0 0 C3.12578143 1.6720747 5.39281175 3.7856235 7 7 C7.51512617 11.09157355 7.94367269 15.23589546 5.953125 18.95703125 C3.55501226 21.85592636 1.60351712 23.79811835 -2.171875 24.2734375 C-9.98876369 24.58137554 -9.98876369 24.58137554 -13.5625 21.625 C-17.3057723 17.59378368 -17.39037018 14.90519941 -17.359375 9.55078125 C-16.78039966 5.44131496 -15.00085071 3.78650423 -12 1 C-8.27533151 -0.86233425 -4.05504687 -0.57130829 0 0 Z M-11.6875 5 C-14.27817966 8.36088172 -14.75374015 9.94015764 -14.49609375 14.0625 C-13.64086737 17.40259675 -11.68789793 18.99970386 -9 21 C-8.01 21 -7.02 21 -6 21 C-6 20.34 -6 19.68 -6 19 C-6.99 18.67 -7.98 18.34 -9 18 C-9.6875 15.9375 -9.6875 15.9375 -10 14 C-8.68 14.66 -7.36 15.32 -6 16 C-6 15.34 -6 14.68 -6 14 C-5.34 13.67 -4.68 13.34 -4 13 C-5.65 12.67 -7.3 12.34 -9 12 C-9 10.02 -9 8.04 -9 6 C-8.01 5.67 -7.02 5.34 -6 5 C-6 4.34 -6 3.68 -6 3 C-9.15722061 2.70149462 -9.15722061 2.70149462 -11.6875 5 Z M-4 3 C-3.525625 3.4125 -3.05125 3.825 -2.5625 4.25 C-0.83733482 6.182185 -0.43415125 7.48192275 0 10 C-0.99 9.67 -1.98 9.34 -3 9 C-3 9.66 -3 10.32 -3 11 C-2.34 11.33 -1.68 11.66 -1 12 C-0.63076923 17.53846154 -0.63076923 17.53846154 -2.5 19.875 C-3.2425 20.431875 -3.2425 20.431875 -4 21 C-1.11050316 20.68762196 0.58633099 20.35661121 2.8125 18.4375 C4.50722837 14.95884704 4.80753571 11.74133516 4 8 C1.85308458 4.93468711 1.85308458 4.93468711 -1 3 C-1.99 3 -2.98 3 -4 3 Z M-7 8 C-6 10 -6 10 -6 10 Z " fill="#000000" transform="translate(25,22)"/>
<path d="M0 0 C2.64 0 5.28 0 8 0 C8 5.94 8 11.88 8 18 C8.66 18 9.32 18 10 18 C10 18.66 10 19.32 10 20 C-3.86 20 -17.72 20 -32 20 C-32 19.34 -32 18.68 -32 18 C-25.4 18 -18.8 18 -12 18 C-12 16.02 -12 14.04 -12 12 C-10.02 12 -8.04 12 -6 12 C-6 10.02 -6 8.04 -6 6 C-4.02 6 -2.04 6 0 6 C0 4.02 0 2.04 0 0 Z M2 2 C2 7.28 2 12.56 2 18 C3.32 18 4.64 18 6 18 C6 12.72 6 7.44 6 2 C4.68 2 3.36 2 2 2 Z M-4 8 C-4 11.3 -4 14.6 -4 18 C-2.68 18 -1.36 18 0 18 C0 14.7 0 11.4 0 8 C-1.32 8 -2.64 8 -4 8 Z M-10 14 C-10 15.32 -10 16.64 -10 18 C-8.68 18 -7.36 18 -6 18 C-6 16.68 -6 15.36 -6 14 C-7.32 14 -8.64 14 -10 14 Z " fill="#000000" transform="translate(44,32)"/>
<path d="M0 0 C6.15234375 -0.09765625 6.15234375 -0.09765625 8 0 C9 1 9 1 9.0625 4.0625 C9.041875 5.031875 9.02125 6.00125 9 7 C8.01 7.33 7.02 7.66 6 8 C5.67 7.34 5.34 6.68 5 6 C4.60167969 6.433125 4.20335937 6.86625 3.79296875 7.3125 C3.26316406 7.869375 2.73335937 8.42625 2.1875 9 C1.40439453 9.8353125 1.40439453 9.8353125 0.60546875 10.6875 C-1 12 -1 12 -4 12 C-3.52797514 7.75177626 -1.03344482 5.80010291 2 3 C1.34 2.67 0.68 2.34 0 2 C0 1.34 0 0.68 0 0 Z " fill="#000000" transform="translate(43,22)"/>
<path d="M0 0 C0.99 0 1.98 0 3 0 C2.67 1.32 2.34 2.64 2 4 C0.68 4.33 -0.64 4.66 -2 5 C-1.125 1.125 -1.125 1.125 0 0 Z " fill="#000000" transform="translate(35,35)"/>
<path d="M0 0 C1.98 0 3.96 0 6 0 C6 0.66 6 1.32 6 2 C4.02 2 2.04 2 0 2 C0 1.34 0 0.68 0 0 Z " fill="#000000" transform="translate(50,18)"/>
<path d="M0 0 C0.66 0 1.32 0 2 0 C2 1.32 2 2.64 2 4 C1.34 4 0.68 4 0 4 C0 2.68 0 1.36 0 0 Z " fill="#000000" transform="translate(54,12)"/>
<path d="M0 0 C0.66 0 1.32 0 2 0 C2 1.32 2 2.64 2 4 C1.34 4 0.68 4 0 4 C0 2.68 0 1.36 0 0 Z " fill="#000000" transform="translate(49,12)"/>
<path d="M0 0 C0.66 0 1.32 0 2 0 C2 1.32 2 2.64 2 4 C1.34 4 0.68 4 0 4 C0 2.68 0 1.36 0 0 Z " fill="#000000" transform="translate(44,12)"/>
<path d="M0 0 C0.66 0 1.32 0 2 0 C2 1.32 2 2.64 2 4 C1.34 4 0.68 4 0 4 C0 2.68 0 1.36 0 0 Z " fill="#000000" transform="translate(39,12)"/>
<path d="M0 0 C0.66 0 1.32 0 2 0 C2 1.32 2 2.64 2 4 C1.34 4 0.68 4 0 4 C0 2.68 0 1.36 0 0 Z " fill="#000000" transform="translate(34,12)"/>
<path d="M0 0 C0.66 0 1.32 0 2 0 C2 1.32 2 2.64 2 4 C1.34 4 0.68 4 0 4 C0 2.68 0 1.36 0 0 Z " fill="#000000" transform="translate(29,12)"/>
<path d="M0 0 C0.66 0 1.32 0 2 0 C2 1.32 2 2.64 2 4 C1.34 4 0.68 4 0 4 C0 2.68 0 1.36 0 0 Z " fill="#000000" transform="translate(24,12)"/>
<path d="M0 0 C0.66 0 1.32 0 2 0 C2 1.32 2 2.64 2 4 C1.34 4 0.68 4 0 4 C0 2.68 0 1.36 0 0 Z " fill="#000000" transform="translate(19,12)"/>
<path d="M0 0 C0.66 0 1.32 0 2 0 C2 1.32 2 2.64 2 4 C1.34 4 0.68 4 0 4 C0 2.68 0 1.36 0 0 Z " fill="#000000" transform="translate(14,12)"/>
<path d="M0 0 C0.66 0 1.32 0 2 0 C2 1.32 2 2.64 2 4 C1.34 4 0.68 4 0 4 C0 2.68 0 1.36 0 0 Z " fill="#000000" transform="translate(9,12)"/>
</svg>
